<svg width="72" height="72" viewBox="0 0 72 72" fill="none" xmlns="http://www.w3.org/2000/svg">
<path d="M38.4249 24.729C38.4249 27.369 39.1149 29.583 40.4949 31.38C41.4729 32.616 42.7989 33.429 44.4759 33.816C46.1259 34.2 47.6859 34.227 49.0959 33.9C49.5759 36.75 48.7959 39.768 46.8159 42.966C44.8359 46.161 42.2709 48.567 39.1419 50.175L43.8849 57C46.2849 55.812 48.5649 54.306 50.6649 52.485C52.7949 50.664 54.6849 48.57 56.3649 46.203C58.0449 43.836 59.3049 41.163 60.1149 38.133C60.9249 35.103 61.1499 32.013 60.7629 28.833C60.2589 24.633 58.9029 21.273 56.6949 18.783C54.4899 16.26 51.7389 15 48.4509 15C45.5559 15 43.1529 15.87 41.2509 17.634C39.3669 19.362 38.4309 21.729 38.4309 24.738L38.4249 24.729ZM11.0529 24.729C11.0529 27.369 11.7429 29.583 13.1229 31.38C14.1009 32.64 15.4329 33.456 17.1039 33.831C18.7839 34.203 20.3229 34.221 21.7239 33.897C22.2039 36.717 21.4539 39.747 19.4679 42.957C17.4879 46.137 14.9289 48.537 11.7999 50.157L16.5309 57C18.9309 55.812 21.1959 54.306 23.3109 52.485C25.4603 50.637 27.3692 48.5265 28.9929 46.203C30.6609 43.833 31.9029 41.163 32.7129 38.133C33.5324 35.1048 33.7536 31.9458 33.3639 28.833C32.8659 24.633 31.5159 21.273 29.3139 18.783C27.1149 16.281 24.3729 15.027 21.0849 15.027C18.1839 15.027 15.7809 15.897 13.8789 17.658C11.9979 19.386 11.0529 21.753 11.0529 24.762L11.0529 24.729Z" fill="#E9E9E9"/>
</svg>
